<?xml version="1.0" encoding="utf-8"?>
<!-- Generator: Adobe Illustrator 22.1.0, SVG Export Plug-In . SVG Version: 6.00 Build 0)  -->
<svg version="1.1" id="Capa_1" xmlns="http://www.w3.org/2000/svg" xmlns:xlink="http://www.w3.org/1999/xlink" x="0px" y="0px"
	 viewBox="0 0 320.3 145.7" style="enable-background:new 0 0 320.3 145.7;" xml:space="preserve">
<style type="text/css">
	.st0{fill:#A9DADE;}
	.st1{fill:#008296;}
	.st2{fill:#1D1D1B;}
</style>
<title>logo dc</title>
<path class="st0" d="M53.4,61.5c1.5,0,2.9,0.8,3.7,2.1c0.3,0.6,0.5,1.3,0.6,2v0.2c-0.1,1.4-0.8,2.7-2.1,3.4
	c-0.6,0.4-1.4,0.6-2.2,0.6V61.5z M53.4,54v-8.3c1.5,0,2.9,0.8,3.6,2.1c1.2,1.9,0.6,4.3-1.3,5.5c-0.1,0-0.1,0.1-0.2,0.1
	C54.9,53.8,54.1,54,53.4,54L53.4,54z M53.4,38.3V30c1.5,0,2.8,0.8,3.6,2.1c1.1,2,0.5,4.5-1.5,5.7C54.9,38.1,54.1,38.3,53.4,38.3z
	 M52.1,61.7c0.4-0.1,0.9-0.2,1.3-0.2v8.3c-1.4,0-2.8-0.8-3.5-2c-0.2-0.4-0.4-0.9-0.5-1.4c-0.5-1.5-1.5-2.8-2.8-3.7v-2.2
	c0.2,0.1,0.4,0.3,0.6,0.4C48.6,61.9,50.4,62.2,52.1,61.7L52.1,61.7z M53.4,30v8.3c-2.3,0-4.1-1.8-4.2-4c0-1.5,0.8-2.9,2.1-3.7
	C52,30.2,52.7,30,53.4,30z M53.4,45.7V54c-1.5,0-2.8-0.8-3.5-2.1c-0.3-0.4-0.4-0.8-0.5-1.3c-0.6-1.5-1.6-2.8-2.8-3.8v-2.2
	c0.2,0.1,0.3,0.3,0.5,0.4c1.4,1,3.3,1.4,5,0.9C52.5,45.8,53,45.7,53.4,45.7L53.4,45.7z M46.6,62.6c-0.1-0.1-0.3-0.2-0.4-0.3
	c-1.3-0.9-3-1.2-4.5-0.9c-0.5,0.2-1,0.4-1.5,0.4H40c-2.2,0.2-4.1-1.4-4.4-3.6c-0.5-1.3-1.4-2.5-2.5-3.4v-2.2
	c0.1,0.1,0.2,0.2,0.4,0.2c1.4,1,3.2,1.3,4.9,0.9l1-0.2h0.1c1.6-0.1,3.1,0.6,4,2c0.1,0.2,0.2,0.4,0.3,0.6s0.1,0.3,0.2,0.4
	c0.5,1.5,1.5,2.7,2.7,3.7L46.6,62.6L46.6,62.6z M46.6,44.6v2.2c-0.1-0.1-0.3-0.2-0.5-0.3c-1.4-0.9-3-1.2-4.6-0.9
	c-2.1,1-4.5,0.1-5.5-2s-0.1-4.5,2-5.5c1.9-0.9,4.2-0.2,5.3,1.6c0.1,0.1,0.1,0.3,0.2,0.4c0.1,0.2,0.2,0.5,0.3,0.7
	C44.4,42.4,45.3,43.7,46.6,44.6z M33.1,70.3v-2.2c0.1,0.2,0.4,0.3,0.5,0.4c1.5,1,3.3,1.3,5,0.9c1.9-0.7,4,0.1,5,1.9
	c1.1,2,0.5,4.5-1.5,5.6c-2,1.1-4.5,0.5-5.7-1.4c-0.2-0.4-0.4-0.9-0.5-1.4C35.4,72.6,34.4,71.3,33.1,70.3z M33.1,54.9
	c-0.2-0.2-0.4-0.4-0.7-0.5c-1.4-0.8-3-1.1-4.6-0.8c-0.5,0.2-1,0.3-1.5,0.4v-8.2c1.4,0.1,2.6,0.8,3.3,2c0.1,0.1,0.1,0.3,0.1,0.4
	c0.2,0.2,0.3,0.5,0.4,0.7c0.6,1.5,1.6,2.9,2.9,3.8L33.1,54.9L33.1,54.9z M33.1,68.1v2.2c-0.2-0.1-0.3-0.2-0.5-0.3
	c-1.4-0.9-3-1.2-4.6-0.9c-0.5,0.3-1.1,0.4-1.7,0.4v-8.3c1.4,0.1,2.7,0.9,3.5,2.1c0.1,0.1,0.1,0.2,0.1,0.4c0.2,0.2,0.3,0.4,0.4,0.7
	C30.9,65.9,31.8,67.2,33.1,68.1L33.1,68.1z M26.4,85.5v-8.3c1.5,0,2.9,0.8,3.6,2.1c1.1,2,0.4,4.6-1.6,5.7
	C27.8,85.3,27.1,85.5,26.4,85.5z M26.4,54c-1.6,0.1-3.1-0.6-3.9-2c-0.3-0.6-0.5-1.3-0.6-2v-0.1c0.1-1.5,0.8-2.8,2.1-3.6
	c0.7-0.4,1.5-0.6,2.4-0.5L26.4,54L26.4,54z M26.4,61.3v8.3c-2.3,0.1-4.2-1.7-4.3-4c-0.1-1.5,0.7-3,2.1-3.7
	C24.8,61.5,25.6,61.3,26.4,61.3z M26.4,77.2v8.3c-1.5,0-2.8-0.8-3.6-2c-1.1-2-0.4-4.5,1.5-5.7C24.9,77.4,25.6,77.2,26.4,77.2z"/>
<path class="st1" d="M97.5,57.1v0.1c-0.1,1.5-0.8,2.8-2.1,3.5c-0.7,0.4-1.4,0.6-2.2,0.6v-8.3c1.5,0,2.9,0.7,3.7,2
	C97.2,55.7,97.4,56.4,97.5,57.1L97.5,57.1z M93.2,45.5v-8.3c1.5,0,2.8,0.8,3.6,2.1c1.2,2,0.5,4.5-1.5,5.7c0,0,0,0,0,0
	C94.7,45.4,94,45.6,93.2,45.5z M93.2,29.9v-8.3c2.3,0,4.1,1.8,4.2,4.1c0,1.5-0.8,2.9-2.1,3.6C94.7,29.7,94,29.9,93.2,29.9z M78.4,61
	c2.2-0.7,4.5,0.4,5.3,2.6s-0.4,4.5-2.6,5.3c-1.9,0.6-3.9-0.1-4.9-1.8c-0.2-0.4-0.4-0.9-0.5-1.4c-0.6-1.6-1.8-3-3.2-4
	c-1.4-0.9-3-1.2-4.6-0.8c-0.5,0.2-1.1,0.3-1.7,0.4v-8.3c1.4,0.1,2.7,0.8,3.4,2.1c0.1,0.1,0.2,0.2,0.2,0.4c0.1,0.2,0.2,0.5,0.3,0.7
	c0.7,1.7,1.8,3.1,3.3,4C74.9,61,76.7,61.4,78.4,61L78.4,61z M93.2,21.6v8.3c-1.5,0-2.8-0.8-3.6-2.1c-1.1-2-0.5-4.5,1.5-5.6
	C91.8,21.8,92.5,21.6,93.2,21.6z M93.2,37.2c-0.5,0-0.9,0.1-1.4,0.3c-1.7,0.4-3.5,0.1-5-0.9c-1.5-1-2.6-2.4-3.2-4.1
	c-0.1-0.2-0.2-0.4-0.4-0.6c-0.1-0.1-0.1-0.2-0.2-0.4c-1.1-1.9-3.6-2.6-5.6-1.5c0,0,0,0,0,0c-2,1.2-2.6,3.7-1.4,5.7
	c1.1,1.8,3.3,2.5,5.2,1.7c1.6-0.4,3.2-0.1,4.6,0.8c1.5,1,2.6,2.4,3.3,4c0.1,0.5,0.2,1,0.5,1.4c0.7,1.3,2.1,2,3.5,2V37.2z M93.2,53.1
	c-0.4,0-0.9,0.1-1.3,0.2c-1.7,0.4-3.5,0.1-5-0.9c-1.5-0.9-2.7-2.3-3.3-4c0-0.2-0.1-0.3-0.1-0.5c-0.1-0.2-0.2-0.4-0.3-0.6
	c-0.8-1.4-2.4-2.2-4-2h0c-0.3,0-0.7,0.1-1,0.2c-1.7,0.4-3.5,0.1-4.9-0.9c-1.5-1-2.7-2.4-3.3-4.2c-0.1-0.2-0.2-0.5-0.4-0.7
	c0-0.1-0.1-0.3-0.1-0.4c-0.7-1.2-1.9-2-3.3-2.1v8.3c0.5-0.1,1-0.2,1.5-0.4c1.6-0.4,3.2-0.1,4.6,0.8c1.4,0.9,2.5,2.2,3.2,3.8
	c0.1,0.6,0.2,1.1,0.5,1.6c0.8,1.4,2.3,2.1,3.8,2h0.1c0.5,0,1-0.1,1.5-0.4c1.6-0.3,3.2,0,4.5,0.8c1.5,1,2.6,2.4,3.3,4
	c0.1,0.5,0.2,0.9,0.4,1.4c0.8,1.2,2.1,2,3.5,2.1L93.2,53.1L93.2,53.1z M66.2,108.4v-8.2c1.3,0.1,2.5,0.9,3.2,2
	c1.1,2,0.4,4.5-1.5,5.6C67.3,108.1,66.8,108.3,66.2,108.4L66.2,108.4z M66.2,92.7v-8.3c1.3,0.2,2.4,1,3.1,2.1c1.1,2,0.4,4.6-1.7,5.7
	C67.1,92.4,66.7,92.6,66.2,92.7z M66.2,77c0.7,0,1.5-0.2,2.1-0.6c2-1.1,2.7-3.7,1.5-5.6c0,0,0,0,0,0c-0.8-1.3-2.1-2-3.6-2V77z
	 M66.2,61.1c-1.5,0.1-3-0.7-3.8-2c-1.1-2-0.4-4.5,1.5-5.7c0.7-0.4,1.5-0.6,2.2-0.6V61.1L66.2,61.1z M66.2,37.3v8.3
	c-1.6,0.1-3.1-0.7-3.9-2.1c-1.1-2-0.4-4.5,1.6-5.7C64.6,37.4,65.4,37.2,66.2,37.3z M66.2,68.8V77c-1.5,0-2.8-0.7-3.5-2
	c-1.1-1.9-0.5-4.5,1.4-5.6C64.7,69,65.4,68.8,66.2,68.8L66.2,68.8z M66.2,84.4c-0.6-0.1-1.3,0-1.9,0.2c-1.7,0.4-3.6,0.1-5-0.9
	c-1.5-0.9-2.7-2.3-3.3-4c-0.1-0.3-0.2-0.5-0.4-0.7c0-0.1-0.1-0.2-0.2-0.4c-1.2-1.9-3.7-2.6-5.7-1.6c-2,1.2-2.6,3.7-1.5,5.7
	c1.1,1.9,3.4,2.6,5.4,1.7c1.6-0.3,3.2,0,4.6,0.9c1.5,0.9,2.6,2.3,3.2,4c0.1,0.5,0.3,0.9,0.5,1.3c0.8,1.4,2.5,2.3,4.1,2.1
	C66.2,92.6,66.2,84.4,66.2,84.4z M66.2,100.2v8.2c-1.6,0.2-3.2-0.6-4-2c-0.2-0.4-0.4-0.9-0.5-1.4c-0.6-1.6-1.8-3.1-3.2-4
	c-1.4-0.9-3-1.2-4.6-0.9c-0.5,0.2-0.9,0.4-1.4,0.4h-0.1c-1.6,0.1-3.1-0.7-3.9-2.1c-0.3-0.5-0.4-1-0.5-1.5c-0.7-1.6-1.8-2.9-3.2-3.9
	c-1.4-0.8-3.1-1.1-4.7-0.8c-0.4,0.2-0.9,0.4-1.4,0.4v-8.2c1.4,0.1,2.6,0.8,3.2,2c0.1,0.1,0.1,0.3,0.2,0.4c0.1,0.2,0.2,0.4,0.4,0.7
	c0.6,1.7,1.8,3.1,3.3,4c1.4,1,3.2,1.3,4.8,0.9l1.1-0.2h0.1c1.6-0.1,3.1,0.6,3.9,2c0.1,0.2,0.2,0.4,0.3,0.7l0.2,0.4
	c0.6,1.7,1.8,3.1,3.3,4.1c1.5,1,3.3,1.3,5,0.9C64.9,100.1,65.6,100.1,66.2,100.2L66.2,100.2z M38.6,124.1v-8.3
	c1.5,0,2.8,0.8,3.6,2.1c1.1,2,0.5,4.5-1.5,5.7C40,124,39.3,124.1,38.6,124.1z M38.6,108.3c0.6,0,1.1-0.1,1.6-0.4
	c1.6-0.3,3.3,0,4.7,0.9c1.5,1,2.6,2.4,3.2,4c0.1,0.5,0.3,0.9,0.5,1.4c1.2,2,3.7,2.6,5.7,1.4c2-1.2,2.6-3.7,1.4-5.7
	c-1-1.7-3-2.4-4.9-1.8c-1.7,0.5-3.5,0.2-5-0.9c-1.5-1-2.7-2.4-3.3-4.1c-0.1-0.3-0.2-0.5-0.4-0.7c-0.1-0.1-0.1-0.2-0.1-0.3
	c-0.7-1.2-2-2-3.4-2.1V108.3z M38.6,84.5v8.2c-1.6,0.2-3.1-0.6-3.9-2c-0.4-0.6-0.5-1.3-0.6-2v-0.1c0-1.5,0.8-2.8,2.1-3.6
	C36.9,84.6,37.8,84.4,38.6,84.5L38.6,84.5z M38.6,100v8.3c-2.3,0.1-4.2-1.7-4.3-4c-0.1-1.5,0.7-2.9,2-3.7
	C37,100.2,37.8,100,38.6,100z M38.6,115.8v8.3c-2.3,0-4.2-1.8-4.2-4c0-1.5,0.8-2.9,2.1-3.7C37.1,116.1,37.9,115.9,38.6,115.8z"/>
<path class="st0" d="M104.8,92.1c2.3,0.1,4,2,4,4.3c-0.1,1.4-0.8,2.7-2.1,3.4c-0.6,0.3-1.2,0.5-1.9,0.6V92.1z M109.2,64.7v0.1
	c-0.1,1.4-0.8,2.8-2.1,3.5c-0.7,0.4-1.6,0.6-2.4,0.5v-8.3c1.6-0.1,3.1,0.7,3.9,2.1C109,63.3,109.2,64,109.2,64.7L109.2,64.7z
	 M104.8,84.5v-8.2c1.4,0.1,2.7,0.8,3.4,2c1.1,2,0.4,4.5-1.5,5.7C106.1,84.3,105.4,84.5,104.8,84.5z M103.2,92.3
	c0.5-0.2,1-0.3,1.5-0.2v8.3c-1.5,0-3-0.8-3.8-2.1c-0.3-0.4-0.5-0.9-0.5-1.4c-0.6-1.5-1.6-2.8-2.9-3.7v-2.2l0.7,0.4
	C99.7,92.4,101.5,92.7,103.2,92.3L103.2,92.3z M104.8,60.6v8.3c-1.4-0.1-2.6-0.8-3.3-2c-1.1-2-0.4-4.5,1.5-5.7
	C103.6,60.9,104.2,60.7,104.8,60.6L104.8,60.6z M104.8,76.3v8.2c-1.6,0.1-3-0.6-3.8-2c-0.2-0.4-0.4-0.9-0.5-1.4
	c-0.5-1.5-1.5-2.8-2.8-3.7v-2.2c0.2,0.1,0.4,0.2,0.6,0.4c1.5,1,3.3,1.3,5,0.9C103.7,76.3,104.2,76.3,104.8,76.3z M97.6,93.2
	c-0.1-0.1-0.2-0.2-0.4-0.3c-1.4-0.8-3-1.1-4.6-0.8c-0.4,0.2-0.9,0.3-1.4,0.4h-0.1c-1.6,0.1-3-0.6-3.8-2c-0.3-0.5-0.4-1-0.5-1.6
	c-0.6-1.3-1.5-2.5-2.6-3.4v-2.2c0.1,0.1,0.3,0.2,0.4,0.3c1.4,1,3.2,1.3,4.9,0.9c0.3-0.1,0.7-0.2,1.1-0.2l0,0c1.6-0.2,3.2,0.6,4,2
	c0.1,0.2,0.2,0.4,0.3,0.6c0.1,0.2,0.2,0.3,0.2,0.5c0.5,1.4,1.4,2.7,2.7,3.6L97.6,93.2L97.6,93.2z M97.6,75.2v2.2
	c-0.1-0.1-0.3-0.3-0.4-0.4c-1.4-0.9-3-1.2-4.6-0.8c-2,0.9-4.3,0.2-5.4-1.7c-1.1-2-0.4-4.5,1.5-5.7c2-1.2,4.5-0.5,5.7,1.5
	c0,0,0,0,0,0c0.1,0.1,0.1,0.2,0.2,0.4c0.1,0.2,0.3,0.4,0.4,0.7C95.4,73,96.4,74.3,97.6,75.2L97.6,75.2z M84.2,100.9v-2.2
	c0.2,0.2,0.4,0.2,0.6,0.4c1.5,1,3.3,1.3,5,0.9c1.9-0.7,3.9,0.1,4.9,1.8c1.2,2,0.5,4.5-1.5,5.7s-4.5,0.5-5.7-1.5
	c-0.3-0.4-0.4-0.9-0.5-1.4C86.4,103.2,85.5,101.9,84.2,100.9z M84.2,85.5c-0.2-0.1-0.4-0.3-0.6-0.4c-1.4-0.9-3.1-1.2-4.7-0.8
	c-0.5,0.2-0.9,0.3-1.4,0.4v-8.3c1.4,0.1,2.6,0.9,3.2,2.1c0.1,0.1,0.2,0.2,0.2,0.4c0.1,0.2,0.3,0.4,0.4,0.7c0.5,1.5,1.5,2.9,2.9,3.8
	C84.2,83.2,84.2,85.5,84.2,85.5z M84.2,98.7v2.2c-0.2-0.1-0.3-0.2-0.4-0.4c-1.4-0.9-3.1-1.2-4.7-0.8c-0.5,0.2-1,0.3-1.6,0.4v-8.3
	c1.4,0.1,2.7,0.9,3.4,2.1c0.1,0.1,0.1,0.2,0.2,0.4c0.1,0.2,0.3,0.5,0.4,0.7C82,96.5,82.9,97.8,84.2,98.7L84.2,98.7z M77.5,116.1
	v-8.3c1.5,0,2.8,0.7,3.6,2c1.1,2,0.4,4.5-1.5,5.7C78.9,115.8,78.2,116,77.5,116.1z M77.5,84.6c-1.6,0.1-3.1-0.7-3.9-2.1
	c-0.4-0.6-0.6-1.3-0.6-2v-0.1c0.1-2.3,2-4.2,4.4-4.1c0,0,0.1,0,0.1,0C77.5,76.3,77.5,84.6,77.5,84.6z M77.5,91.9v8.3
	c-1.5,0.1-3-0.7-3.7-2c-1.1-2-0.5-4.6,1.6-5.7C75.9,92.1,76.7,91.9,77.5,91.9L77.5,91.9z M77.5,107.8v8.3c-1.5,0-2.8-0.8-3.6-2.1
	c-1.1-1.9-0.5-4.4,1.4-5.6c0,0,0.1,0,0.1-0.1C76,108,76.7,107.8,77.5,107.8z"/>
<path class="st2" d="M264.3,58.8V57c1.2,0.1,2.3-0.7,2.7-1.8c0.5-1.8,0.8-3.6,0.7-5.5c0.1-1.8-0.2-3.7-0.7-5.4
	c-0.4-1.2-1.5-1.9-2.7-1.9v-1.6c1.8-0.1,3.4,0.8,4.2,2.4c1,2,1.5,4.3,1.4,6.5c0.1,2.3-0.4,4.6-1.4,6.6
	C267.8,57.9,266.1,58.8,264.3,58.8z M264.3,40.8v1.7c-1.2,0-2.3,0.7-2.7,1.9c-0.6,1.7-0.8,3.6-0.7,5.4c-0.1,1.8,0.1,3.7,0.6,5.5
	c0.4,1.2,1.5,1.9,2.7,1.8v1.7c-1.8,0.1-3.4-0.8-4.3-2.4c-1-2.1-1.5-4.3-1.4-6.6c-0.1-2.3,0.4-4.5,1.4-6.5
	C260.9,41.7,262.5,40.7,264.3,40.8L264.3,40.8z M200.1,53.3v-1.8h2.1l-1.5-5.5c-0.1-0.5-0.2-1-0.4-1.4c0-0.3-0.1-0.6-0.2-0.9v-2.4
	h0.8c0.2,0,0.3,0.1,0.4,0.3l5,16.3l0.1,0.4c0,0.1-0.1,0.1-0.4,0.1h-1.5c-0.3,0-0.4-0.1-0.4-0.3l-1.4-4.8H200.1z M221.3,58.1
	c0,0.2-0.1,0.3-0.3,0.3h-1.4c-0.2,0-0.4-0.1-0.4-0.3l-0.4-13v-1.5c0,0.6-0.1,1.2-0.4,1.8l-3,8.7c0,0.2-0.2,0.3-0.4,0.3h-0.8
	c-0.2,0-0.3-0.1-0.4-0.3l-2.9-8.7c-0.2-0.6-0.3-1.2-0.4-1.8l0,0v1.6l-0.4,13c0,0.2-0.1,0.3-0.3,0.3h-1.5c-0.1,0-0.3-0.1-0.3-0.2
	c0,0,0,0,0,0l1-16.6c0-0.2,0.1-0.3,0.3-0.3h1.6c0.1,0,0.2,0.1,0.3,0.3l3,8.6c0,0.1,0,0.2,0.1,0.4c0.1,0.4,0.2,0.8,0.2,1.2
	c0.1-0.2,0.1-0.5,0.3-0.9s0.1-0.6,0.1-0.7l3-8.6c0.1-0.2,0.1-0.3,0.3-0.3h1.6c0.2,0,0.3,0.1,0.3,0.3L221.3,58.1L221.3,58.1z
	 M233.1,58c0,0.2-0.1,0.4-0.3,0.4h-7.8c-0.2,0-0.3-0.1-0.3-0.3V41.5c0-0.2,0.1-0.3,0.3-0.3h7.9c0.1,0,0.2,0,0.2,0.1
	c0,0,0.1,0,0.1,0.1c0,0,0,0,0,0l-0.1,0.3l-0.4,1.1c0,0.1-0.1,0.2-0.4,0.2h-5.6v5.6h5c0.2,0,0.3,0.1,0.3,0.3V50
	c0,0.2-0.1,0.3-0.3,0.3h-5v6.3h6c0.1,0,0.3,0.1,0.3,0.2c0,0,0,0,0,0L233.1,58L233.1,58z M245.7,58.1c0,0.2-0.1,0.3-0.4,0.3h-1.4
	c-0.2,0-0.4-0.1-0.4-0.3l-5.8-12.4c-0.3-0.7-0.6-1.4-0.7-2.2l0,0c0.1,0.4,0.1,0.9,0.2,1.2v13.3c0,0.2-0.1,0.3-0.3,0.3h-1.3
	c-0.2,0-0.3-0.1-0.3-0.3V41.5c0-0.2,0.1-0.3,0.3-0.3h1.7c0.2,0,0.3,0.1,0.4,0.2l5.6,11.7c0.1,0.2,0.2,0.6,0.3,0.9
	c0.1,0.3,0.2,0.7,0.3,1h0.1c0-0.2-0.1-0.5-0.1-0.7c0-0.3-0.1-0.5-0.1-0.8v-12c0-0.2,0.1-0.3,0.3-0.3h1.3c0.2,0,0.4,0.1,0.4,0.3V58.1
	L245.7,58.1z M253.6,42.9v15.2c0,0.2-0.1,0.3-0.3,0.3h-1.4c-0.2,0-0.3-0.1-0.3-0.3V42.9h-3.8c-0.2,0-0.3-0.1-0.3-0.3v-1.1
	c0-0.2,0.1-0.3,0.3-0.3h9.9c0.2,0,0.4,0.1,0.4,0.2l-0.1,0.3l-0.4,0.9c0,0.2-0.2,0.3-0.4,0.3L253.6,42.9z M200.1,41.2v2.5
	c0,0.2-0.1,0.4-0.1,0.7c-0.1,0.6-0.3,1.1-0.4,1.7l-1.5,5.6h2.1v1.8h-2.6l-1.2,4.8c-0.1,0.2-0.2,0.3-0.5,0.3h-1.5
	c-0.3,0-0.4-0.1-0.4-0.1l0.1-0.4l5-16.3c0-0.2,0.2-0.3,0.4-0.3L200.1,41.2z M177.3,52.1v-3.2c0.6-0.1,1.1-0.3,1.6-0.6
	c0.7-0.6,1-1.6,0.9-2.5c0-1.2-0.3-2-0.9-2.4c-0.5-0.3-1.1-0.4-1.7-0.4v-1.8c1.1,0,2.2,0.3,3.2,0.8c1,0.6,1.4,1.8,1.4,3.7
	c0.1,1.1-0.3,2.2-1,3c-0.6,0.8-1.4,1.3-2.3,1.7l4.2,7.6l0.1,0.3c-0.1,0.1-0.2,0.2-0.3,0.2l-1.6,0.3c-0.2,0-0.3-0.1-0.4-0.2
	L177.3,52.1L177.3,52.1z M189.4,42.9v15.2c0,0.2-0.1,0.3-0.3,0.3h-1.4c-0.2,0-0.3-0.1-0.3-0.3V42.9h-3.8c-0.2,0-0.3-0.1-0.3-0.3
	v-1.1c0-0.2,0.1-0.3,0.3-0.3h9.9c0.2,0,0.3,0.1,0.3,0.2l-0.1,0.3l-0.4,0.9c0,0.2-0.2,0.3-0.4,0.3H189.4z M177.3,41.2V43
	c-0.2-0.1-0.4-0.1-0.6-0.1h-1.9v6h2.6v3.2l-0.8-1.5h-1.8v7.5c0,0.1-0.1,0.3-0.2,0.3c0,0,0,0-0.1,0h-1.5c-0.1,0-0.3-0.1-0.3-0.2
	c0,0,0,0,0-0.1V41.5c0-0.1,0.1-0.3,0.2-0.3c0,0,0,0,0.1,0C172.9,41.2,177.3,41.2,177.3,41.2z M164.2,53.3v-1.8h2.1l-1.5-5.5
	c-0.1-0.5-0.3-1-0.4-1.4c-0.1-0.3-0.2-0.6-0.2-0.9v-2.4h0.8c0.2,0,0.3,0.1,0.4,0.3l5,16.3l0.1,0.4c0,0.1-0.1,0.1-0.4,0.1h-1.6
	c-0.2,0-0.4-0.1-0.4-0.3l-1.4-4.8L164.2,53.3z M164.2,41.2v2.5c-0.1,0.2-0.1,0.4-0.1,0.7c-0.2,0.5-0.3,1.1-0.4,1.7l-1.5,5.5h2.1v1.8
	h-2.6l-1.2,4.8c-0.1,0.2-0.2,0.3-0.4,0.3h-1.6c-0.2,0-0.4-0.1-0.4-0.1l0.1-0.4l5-16.4c0-0.2,0.1-0.3,0.4-0.3H164.2z M152.6,51.1
	v-1.8c0.6-0.1,1.2-0.3,1.7-0.7c0.7-0.8,1-1.8,0.9-2.9c0-1.2-0.3-2-0.9-2.4c-0.5-0.3-1.1-0.4-1.7-0.4v-1.8c1.1,0,2.2,0.3,3.2,0.8
	c0.9,0.6,1.4,1.8,1.4,3.7s-0.5,3.4-1.6,4.2C154.8,50.6,153.7,51,152.6,51.1L152.6,51.1z M128.9,56.5c0.9-0.2,1.7-0.8,2.1-1.6
	c0.7-1.7,1-3.5,0.9-5.3c0-2.6-0.4-4.4-1.1-5.3c-0.5-0.6-1.1-1-1.9-1.2v-1.9c1.3,0.1,2.5,0.7,3.5,1.5c1.2,1.1,1.8,3.4,1.8,6.8
	c0,3.1-0.6,5.3-1.7,6.7c-0.9,1.1-2.2,1.8-3.6,2L128.9,56.5L128.9,56.5z M152.6,41.2V43c-0.2-0.1-0.4-0.1-0.6-0.1h-1.9v6.5h1.6
	c0.4,0,0.6-0.1,0.9-0.1v1.8h-2.5v7c0,0.2-0.1,0.3-0.4,0.3h-1.4c-0.2,0-0.3-0.1-0.3-0.3V41.5c0-0.2,0.1-0.3,0.3-0.3L152.6,41.2
	L152.6,41.2z M145.4,58c0,0.2-0.1,0.3-0.3,0.4c0,0,0,0,0,0h-7.7c-0.2,0-0.4-0.1-0.4-0.3V41.5c0-0.2,0.1-0.3,0.4-0.3h7.8
	c0.1,0,0.2,0,0.3,0.1l0.1,0.1l-0.1,0.3l-0.4,1.1c-0.1,0.1-0.2,0.2-0.4,0.2h-5.6v5.6h5c0.2,0,0.3,0.1,0.3,0.3V50
	c0,0.2-0.1,0.3-0.3,0.3h-5v6.3h6.1c0.1,0,0.3,0.1,0.3,0.2c0,0,0,0,0,0V58z M127.5,56.6c0.5,0,0.9,0,1.4-0.1v1.8
	c-0.6,0.1-1.2,0.1-1.8,0.1h-2.9c-0.2,0-0.3-0.1-0.3-0.3V41.5c0-0.2,0.1-0.3,0.3-0.3h3.2c0.5,0,1,0,1.5,0.1v1.9
	c-0.5-0.2-1-0.2-1.6-0.2h-1.4v13.7L127.5,56.6z"/>
<path class="st2" d="M295.7,99.4v-0.7h1l-1-3.4v-0.7h0.6l2,6.3h-0.9l-0.5-1.5H295.7z M295.7,94.6v0.7l-1,3.4h1v0.7h-1.1l-0.5,1.5
	h-0.8l2-6.3H295.7z M290.3,100.9v-0.7c0.3,0,0.6-0.1,0.9-0.3c0.2-0.2,0.3-0.5,0.3-0.8c0-0.3-0.1-0.7-0.4-0.9
	c-0.2-0.2-0.5-0.3-0.8-0.3v-0.7h0.1c0.2,0,0.5-0.1,0.6-0.3c0.2-0.2,0.2-0.5,0.2-0.7c0-0.3-0.1-0.5-0.2-0.7c-0.2-0.2-0.5-0.2-0.7-0.2
	v-0.7h0.1c0.3,0,0.6,0,0.9,0.1c0.2,0.1,0.4,0.3,0.5,0.4c0.1,0.2,0.1,0.3,0.2,0.5v0.4c0,0.3-0.1,0.7-0.2,1c-0.2,0.3-0.5,0.5-0.8,0.5
	v0.1c0.4,0,0.7,0.2,0.9,0.4c0.2,0.3,0.3,0.6,0.3,1c0,0.7-0.1,1.2-0.5,1.4C291.3,100.7,290.8,100.9,290.3,100.9L290.3,100.9z
	 M290.3,94.6v0.7h-1.1v1.9h1.1v0.7h-1.1v2.2h1.1v0.7h-1.9v-6.3H290.3z M268.6,100.9v-0.6l0,0c0.2,0,0.4-0.1,0.6-0.2
	c0.1-0.2,0.2-0.4,0.2-0.6h0.8c0,0.4-0.1,0.8-0.4,1C269.5,100.9,269,101,268.6,100.9L268.6,100.9z M268.6,98.9v-0.6h0.9
	c0-0.4,0-0.8-0.2-1.2c-0.2-0.2-0.4-0.3-0.6-0.3v-0.5l0,0c0.6,0,1.1,0.1,1.3,0.5c0.2,0.5,0.3,1.1,0.3,1.7v0.4H268.6z M273,100.9
	c-0.4,0-0.8-0.1-1.1-0.4c-0.3-0.3-0.4-0.7-0.4-1.1h0.8c0,0.2,0.1,0.4,0.1,0.7c0.1,0.2,0.3,0.2,0.6,0.2c0.2,0,0.4-0.1,0.6-0.2
	c0.1-0.1,0.2-0.3,0.2-0.5c0-0.2-0.3-0.4-0.8-0.7c-0.4-0.2-0.7-0.4-1.1-0.7c-0.2-0.2-0.4-0.4-0.4-0.7c0-0.3,0.1-0.6,0.4-0.9
	c0.3-0.3,0.7-0.4,1.1-0.4c0.4,0,0.7,0.1,1,0.3c0.3,0.2,0.4,0.6,0.4,0.9h-0.8c0-0.4-0.2-0.7-0.6-0.7c-0.2,0-0.4,0.1-0.5,0.2
	c-0.1,0.1-0.1,0.2-0.1,0.4s0.2,0.4,0.7,0.7s0.9,0.5,1.1,0.7c0.3,0.2,0.4,0.5,0.4,0.8c0,0.4-0.1,0.8-0.4,1
	C273.7,100.9,273.3,101,273,100.9L273,100.9z M277.5,98.1h1.9v0.7h-1.9V98.1z M282.7,94.6h0.8v4c-0.1,0.5,0,0.9,0.3,1.3
	c0.2,0.3,0.5,0.4,0.9,0.4c0.4,0.1,0.7-0.1,0.9-0.4c0.2-0.4,0.3-0.8,0.3-1.3v-4h0.8v4c0,0.7-0.1,1.3-0.5,1.9
	c-0.4,0.4-0.9,0.6-1.5,0.6c-0.5,0-1.1-0.2-1.4-0.6c-0.4-0.5-0.6-1.2-0.5-1.9L282.7,94.6z M268.6,96.4v0.5l0,0
	c-0.3,0-0.5,0.1-0.6,0.4c-0.2,0.3-0.2,0.7-0.2,1.1h0.9v0.6h-0.9c0,0.4,0,0.8,0.2,1.2c0.1,0.2,0.4,0.3,0.6,0.3v0.6
	c-0.4,0-0.9-0.1-1.2-0.4c-0.4-0.5-0.5-1.2-0.4-1.8c0-0.6,0.1-1.2,0.4-1.7C267.5,96.6,268,96.4,268.6,96.4z M261.8,100.9v-0.6
	c0.2,0,0.4-0.2,0.5-0.4c0.2-0.4,0.3-0.8,0.3-1.3h-0.8v-0.5c0.3-0.1,0.5-0.1,0.8-0.1c0-0.3,0-0.6-0.1-0.9c-0.1-0.2-0.3-0.4-0.6-0.4
	h-0.1v-0.5h0.1c0.4,0,0.8,0.1,1.1,0.4c0.2,0.2,0.4,0.6,0.4,0.9v2.1c0,0.4,0,0.7,0.1,1.1h-0.8v-0.7c-0.1,0.2-0.2,0.4-0.4,0.6
	C262,100.9,261.9,100.9,261.8,100.9z M265.6,100.9h-0.7v-6.3h0.7V100.9z M261.8,96.4v0.5c-0.2,0.1-0.4,0.1-0.4,0.2
	c-0.2,0.1-0.2,0.3-0.2,0.5v0.1h-0.8c0-0.4,0.1-0.8,0.4-1C261.1,96.5,261.4,96.4,261.8,96.4L261.8,96.4z M261.8,98.2v0.5
	c-0.1,0.1-0.3,0.1-0.4,0.2c-0.3,0.1-0.4,0.3-0.4,0.7c0,0.2,0.1,0.4,0.1,0.6c0.1,0.1,0.3,0.2,0.5,0.2h0.1v0.6h-0.3
	c-0.4,0.1-0.7-0.1-0.9-0.4c-0.2-0.3-0.3-0.7-0.3-1.1c-0.1-0.5,0.2-0.9,0.6-1.1C261.2,98.3,261.5,98.2,261.8,98.2L261.8,98.2z
	 M246.9,100.9v-0.6c0.2,0,0.4-0.2,0.6-0.4c0.2-0.4,0.3-0.9,0.2-1.3h-0.8v-0.5c0.3-0.1,0.5-0.1,0.8-0.1c0-0.3,0-0.6-0.1-0.9
	c-0.1-0.2-0.3-0.4-0.6-0.4h-0.1v-0.5h0.1c0.4,0,0.8,0.1,1.1,0.4c0.2,0.3,0.3,0.6,0.3,0.9v2.1c0,0.4,0,0.7,0.1,1.1h-0.8v-0.7
	c-0.1,0.2-0.3,0.4-0.4,0.6C247.2,100.9,247.1,100.9,246.9,100.9L246.9,100.9z M250.1,96.5v-0.9l0.6-0.3v1.2h1v0.6h-1v2.7
	c0,0.2,0,0.3,0.1,0.4c0.1,0.2,0.2,0.2,0.5,0.2l0.4-0.1v0.6h-0.4c-0.1,0.1-0.2,0.1-0.4,0.1c-0.6,0-0.9-0.3-0.9-0.8v-3.1h-0.7v-0.6
	L250.1,96.5z M255,96.5h0.7v4.4H255v-0.5c-0.3,0.4-0.7,0.6-1.1,0.6c-0.8,0-1.2-0.4-1.2-1.2v-3.3h0.7v3c0,0.2,0.1,0.5,0.2,0.7
	c0.1,0.2,0.4,0.3,0.6,0.3c0.2,0,0.4-0.1,0.6-0.3c0.2-0.2,0.3-0.5,0.3-0.8L255,96.5L255,96.5z M258,97.1c0.1-0.3,0.3-0.5,0.5-0.6
	c0.3-0.1,0.6-0.1,0.9-0.1v0.7H259c-0.3,0-0.6,0.1-0.8,0.3c-0.2,0.3-0.2,0.6-0.2,0.9v2.6h-0.7v-4.4h0.7L258,97.1z M246.9,96.4v0.5
	c-0.2,0.1-0.4,0.1-0.4,0.2c-0.2,0.1-0.2,0.3-0.2,0.5v0.1h-0.7c-0.1-0.4,0.1-0.7,0.4-1C246.2,96.5,246.6,96.4,246.9,96.4L246.9,96.4z
	 M246.9,98.2v0.5c-0.1,0.1-0.3,0.1-0.4,0.2c-0.3,0.1-0.4,0.3-0.4,0.7c0,0.2,0.1,0.4,0.1,0.6c0.1,0.2,0.4,0.2,0.6,0.2h0.1v0.6h-0.3
	c-0.4,0-0.7-0.1-0.9-0.4c-0.2-0.3-0.3-0.7-0.3-1.1c-0.1-0.5,0.2-0.9,0.6-1.1C246.3,98.3,246.6,98.2,246.9,98.2L246.9,98.2z
	 M224.3,100.9v-0.6c0.2,0,0.5-0.2,0.6-0.4c0.2-0.4,0.2-0.9,0.2-1.3h-0.8v-0.5c0.3-0.1,0.5-0.1,0.8-0.1c0-0.3,0-0.6-0.1-0.9
	c-0.1-0.3-0.4-0.4-0.6-0.4h-0.1v-0.5h0.1c0.4,0,0.8,0.1,1.1,0.4c0.2,0.3,0.3,0.6,0.3,0.9v2.1c0,0.4,0,0.7,0.1,1.1h-0.8v-0.7
	c-0.1,0.2-0.2,0.4-0.4,0.6C224.6,100.9,224.5,100.9,224.3,100.9L224.3,100.9z M228.7,100.9c-0.4,0-0.8-0.1-1.1-0.4
	c-0.3-0.3-0.5-0.7-0.4-1.1h0.8c0,0.2,0,0.4,0.1,0.7c0.2,0.2,0.4,0.3,0.6,0.2c0.2,0,0.4-0.1,0.5-0.2c0.1-0.1,0.2-0.3,0.2-0.5
	c0-0.2-0.2-0.4-0.7-0.7c-0.4-0.2-0.8-0.4-1.1-0.7c-0.2-0.2-0.3-0.4-0.3-0.7c0-0.3,0.1-0.7,0.4-0.9c0.3-0.3,0.7-0.4,1.2-0.4
	c0.4,0,0.7,0.1,1,0.3c0.2,0.2,0.4,0.6,0.4,0.9h-0.8c0-0.4-0.2-0.7-0.6-0.7c-0.2,0-0.4,0.1-0.5,0.2c-0.2,0.1-0.2,0.3-0.2,0.4
	c0,0.1,0.3,0.4,0.8,0.7s0.9,0.5,1.1,0.7c0.3,0.2,0.4,0.5,0.4,0.8c0,0.4-0.1,0.8-0.4,1C229.5,100.9,229.1,101,228.7,100.9
	L228.7,100.9z M234.8,100l1.1-3.5h0.8l-2,6h-0.7l0.5-1.7l-1.5-4.4h0.9L234.8,100L234.8,100z M243.9,94.6v6.3h-1.1l-2.5-5.4v5.4h-0.7
	v-6.3h1.2l2.4,5.3v-5.3L243.9,94.6z M224.3,96.4v0.5c-0.2,0.1-0.4,0.1-0.4,0.2c-0.2,0.1-0.2,0.3-0.2,0.5v0.1H223
	c-0.1-0.4,0.1-0.7,0.4-1C223.6,96.5,224,96.4,224.3,96.4L224.3,96.4z M224.3,98.2v0.5c-0.1,0.1-0.3,0.1-0.4,0.2
	c-0.3,0.1-0.4,0.3-0.4,0.7c0,0.2,0.1,0.4,0.1,0.6c0.1,0.2,0.4,0.2,0.6,0.2h0.1v0.6H224c-0.3,0-0.7-0.1-0.9-0.4
	c-0.2-0.3-0.3-0.7-0.3-1.1c-0.1-0.5,0.2-0.9,0.6-1.1C223.7,98.3,224,98.2,224.3,98.2L224.3,98.2z M212.6,100.9v-0.6
	c0.2,0,0.4-0.2,0.5-0.4c0.2-0.4,0.3-0.8,0.3-1.3h-0.8v-0.5c0.3-0.1,0.5-0.1,0.8-0.1c0-0.3,0-0.6-0.1-0.9c-0.1-0.3-0.4-0.4-0.6-0.4
	l0,0v-0.5h0.1c0.4,0,0.8,0.1,1.1,0.4c0.2,0.3,0.3,0.6,0.3,0.9v2.1c0,0.4,0.1,0.7,0.1,1.1h-0.8v-0.7c-0.1,0.2-0.3,0.4-0.5,0.6
	C212.8,100.9,212.7,100.9,212.6,100.9L212.6,100.9z M218,97.9c0-0.3,0-0.5-0.2-0.7c-0.1-0.1-0.2-0.2-0.4-0.2c-0.3,0-0.5,0.1-0.6,0.3
	c-0.2,0.3-0.3,0.7-0.3,1.2c0,0.5,0,1,0.2,1.5c0.1,0.3,0.4,0.5,0.7,0.4c0.2,0,0.4-0.1,0.5-0.3c0.1-0.2,0.1-0.4,0.1-0.7h0.7
	c0,0.4-0.1,0.9-0.4,1.2c-0.3,0.2-0.6,0.4-0.9,0.4c-0.5,0-0.9-0.1-1.2-0.4c-0.4-0.5-0.5-1.2-0.4-1.8c0-0.6,0.1-1.2,0.3-1.7
	c0.3-0.4,0.8-0.6,1.4-0.6c0.9,0,1.4,0.5,1.4,1.5L218,97.9z M220.3,96.5v-0.9l0.7-0.3v1.2h1v0.6h-1v2.7c0,0.2,0,0.3,0.1,0.4
	c0.1,0.2,0.2,0.2,0.5,0.2l0.4-0.1v0.6h-0.4c-0.1,0.1-0.2,0.1-0.4,0.1c-0.6,0-1-0.3-1-0.8v-3.1h-0.7v-0.6L220.3,96.5z M212.6,96.4
	v0.5c-0.2,0.1-0.4,0.1-0.5,0.2c-0.1,0.1-0.1,0.3-0.1,0.5v0.1h-0.8c0-0.4,0.1-0.7,0.4-1C211.8,96.5,212.2,96.4,212.6,96.4z
	 M212.6,98.2v0.5c-0.1,0-0.3,0.1-0.4,0.2c-0.3,0.1-0.4,0.3-0.4,0.7c0,0.2,0.1,0.4,0.2,0.6c0.1,0.2,0.3,0.2,0.5,0.2h0.1v0.6h-0.4
	c-0.3,0-0.7-0.1-0.9-0.4c-0.2-0.3-0.3-0.7-0.3-1.1c0-0.6,0.1-0.9,0.6-1.1C211.9,98.3,212.2,98.2,212.6,98.2L212.6,98.2z M193.3,101
	v-0.6c0.2,0,0.4-0.2,0.6-0.4c0.2-0.4,0.3-0.9,0.2-1.3h-0.8v-0.5c0.3-0.1,0.5-0.1,0.8-0.1c0-0.3,0-0.6-0.1-0.9
	c-0.1-0.3-0.4-0.4-0.6-0.4h-0.1v-0.5h0.1c0.4,0,0.8,0.1,1.1,0.4c0.2,0.3,0.3,0.6,0.3,0.9v2.1c0,0.4,0.1,0.7,0.1,1.1H194v-0.7
	c-0.1,0.2-0.2,0.5-0.4,0.6C193.5,100.9,193.4,100.9,193.3,101L193.3,101z M197.8,101c-0.4,0-0.8-0.1-1.1-0.4
	c-0.3-0.3-0.4-0.7-0.4-1.1h0.8c0,0.2,0.1,0.4,0.1,0.7c0.1,0.2,0.3,0.2,0.6,0.2c0.2,0,0.4-0.1,0.6-0.2c0.1-0.1,0.2-0.3,0.2-0.5
	c0-0.2-0.3-0.4-0.8-0.7c-0.4-0.2-0.7-0.4-1.1-0.7c-0.2-0.2-0.4-0.4-0.4-0.7c0-0.3,0.1-0.6,0.4-0.9c0.3-0.3,0.7-0.4,1.1-0.4
	c0.4,0,0.7,0.1,1,0.3c0.3,0.2,0.5,0.6,0.4,0.9h-0.8c0-0.4-0.3-0.7-0.6-0.7c0,0-0.1,0-0.1,0c-0.2,0-0.4,0.1-0.5,0.2
	c-0.1,0.1-0.2,0.3-0.1,0.4c0,0.1,0.2,0.4,0.7,0.7c0.4,0.2,0.8,0.4,1.2,0.7c0.2,0.1,0.3,0.4,0.3,0.8c0,0.4-0.1,0.8-0.4,1
	C198.5,100.9,198.1,101,197.8,101L197.8,101z M202.5,100.9v-6.3h3.2v0.7h-2.4v2h2.3V98h-2.3v2.2h2.5v0.7L202.5,100.9z M210.2,100.9
	h-0.9l-1-1.8l-1,1.8h-0.8l1.4-2.3l-1.3-2.1h0.9l0.9,1.6l0.9-1.6h0.8l-1.3,2.1L210.2,100.9z M193.3,96.4v0.5
	c-0.1,0.1-0.3,0.1-0.4,0.2c-0.1,0.1-0.2,0.3-0.1,0.5v0.1h-0.8c0-0.4,0.1-0.7,0.4-1C192.6,96.5,192.9,96.4,193.3,96.4L193.3,96.4z
	 M193.3,98.2v0.5c-0.1,0-0.2,0.1-0.4,0.2c-0.3,0.1-0.4,0.3-0.4,0.7c0,0.2,0.1,0.4,0.2,0.6c0.1,0.2,0.3,0.2,0.5,0.2h0.1v0.6H193
	c-0.3,0-0.7-0.1-0.9-0.4c-0.2-0.3-0.2-0.7-0.2-1.1c0-0.6,0.1-0.9,0.6-1.1C192.7,98.3,193,98.2,193.3,98.2L193.3,98.2z M177.6,101
	v-0.6l0,0c0.2,0,0.4-0.1,0.6-0.2c0.1-0.2,0.2-0.4,0.2-0.6h0.7c0.1,0.4-0.1,0.7-0.4,1C178.4,100.9,178,101,177.6,101L177.6,101z
	 M177.6,99v-0.6h0.8c0-0.4,0-0.8-0.2-1.2c-0.1-0.2-0.4-0.3-0.6-0.3v-0.5l0,0c0.6,0,1,0.1,1.2,0.5c0.3,0.5,0.4,1.1,0.4,1.7V99H177.6z
	 M183,100.9v-3c0-0.2-0.1-0.5-0.2-0.7c-0.1-0.2-0.4-0.2-0.6-0.2c-0.3,0-0.6,0.1-0.7,0.4c-0.2,0.3-0.2,0.6-0.2,0.9v2.6h-0.6v-3.5
	c0-0.3-0.1-0.6-0.1-0.9h0.7v0.6h0.1c0.1-0.2,0.2-0.4,0.4-0.5c0.2-0.1,0.5-0.1,0.7-0.1c0.3,0,0.7,0.1,0.9,0.4
	c0.2,0.3,0.3,0.7,0.2,1.1v3L183,100.9z M187.5,97.9c0-0.3-0.1-0.5-0.2-0.7c-0.1-0.2-0.3-0.2-0.4-0.2c-0.3,0-0.5,0.1-0.6,0.3
	c-0.2,0.4-0.3,0.8-0.2,1.2c0,0.5,0,1,0.1,1.5c0.1,0.3,0.4,0.5,0.7,0.4c0.2,0,0.4-0.1,0.5-0.3c0.1-0.2,0.1-0.4,0.1-0.7h0.8
	c0,0.4-0.2,0.9-0.5,1.2c-0.3,0.2-0.6,0.4-0.9,0.4c-0.5,0-0.9-0.1-1.2-0.4c-0.4-0.5-0.5-1.2-0.4-1.8c0-0.6,0.1-1.2,0.4-1.7
	c0.1-0.4,0.6-0.6,1.3-0.6c0.9,0,1.4,0.5,1.4,1.5L187.5,97.9z M190.5,100.9h-0.7v-4.4h0.7V100.9L190.5,100.9z M189.7,94.6h0.8v0.8
	h-0.8V94.6z M177.6,96.4v0.5h-0.1c-0.2,0-0.5,0.2-0.6,0.4c-0.2,0.3-0.2,0.7-0.2,1.1h0.9V99h-0.9c0,0.4,0,0.8,0.2,1.2
	c0.1,0.2,0.4,0.3,0.6,0.3v0.6c-0.4,0-0.9-0.1-1.2-0.4c-0.4-0.5-0.5-1.2-0.4-1.8c0-0.6,0.1-1.2,0.3-1.7
	C176.6,96.6,177.1,96.4,177.6,96.4L177.6,96.4z M163.9,101v-0.6h0.1c0.2,0,0.4-0.1,0.5-0.2c0.1-0.2,0.2-0.4,0.2-0.6h0.8
	c0,0.4-0.1,0.8-0.4,1C164.8,100.9,164.4,101,163.9,101L163.9,101z M163.9,99v-0.6h0.9c0-0.4,0-0.8-0.2-1.2c-0.2-0.2-0.4-0.3-0.6-0.3
	v-0.5h0.1c0.5-0.1,0.9,0.1,1.2,0.5c0.3,0.5,0.4,1.1,0.4,1.7V99H163.9z M171.7,96.4v-0.6c0-0.1-0.1-0.2-0.1-0.4
	c-0.1-0.1-0.2-0.2-0.4-0.2h-0.4c-0.3,0-0.5,0-0.6,0.2s-0.3,0.2-0.4,0.4s-0.1,0.3-0.1,0.5s-0.1,0.4-0.1,0.7v1.7
	c0,0.5,0.1,0.9,0.3,1.4c0.2,0.2,0.5,0.3,0.9,0.3c0.3,0,0.5-0.1,0.7-0.3c0.2-0.3,0.3-0.6,0.3-1h0.8c0,0.5-0.1,1.1-0.4,1.5
	c-0.3,0.3-0.8,0.5-1.3,0.5c-0.5,0-1-0.1-1.4-0.4c-0.5-0.6-0.7-1.3-0.6-2.1v-1.8c-0.1-0.6,0.1-1.3,0.5-1.8c0.4-0.4,1-0.6,1.5-0.5
	c0.5,0,0.9,0.1,1.3,0.4c0.3,0.4,0.4,0.9,0.4,1.4L171.7,96.4z M174.6,100.9h-0.7v-4.4h0.7V100.9L174.6,100.9z M173.8,94.7h0.8v0.8
	h-0.8V94.7z M163.9,96.5V97l0,0c-0.3,0-0.5,0.1-0.6,0.4c-0.2,0.3-0.2,0.7-0.2,1.1h0.9V99H163c0,0.4,0,0.8,0.2,1.2
	c0.1,0.2,0.4,0.3,0.6,0.3v0.6c-0.4,0-0.8-0.1-1.1-0.4c-0.4-0.5-0.5-1.2-0.4-1.8c-0.1-0.6,0-1.2,0.2-1.8
	C162.8,96.6,163.3,96.4,163.9,96.5L163.9,96.5z M159.4,101v-0.6l0,0c0.3,0,0.6-0.2,0.7-0.5c0.1-0.4,0.1-0.9,0.1-1.4
	c0-0.4,0-0.7-0.1-1.1c-0.1-0.3-0.4-0.5-0.6-0.4l0,0v-0.6c0.3,0.1,0.6,0.2,0.8,0.5v-2.3h0.6v6.3h-0.6v-0.5c-0.1,0.2-0.2,0.4-0.4,0.4
	C159.6,100.9,159.4,101,159.4,101L159.4,101z M159.4,96.5V97c-0.3,0-0.6,0.2-0.7,0.4c-0.1,0.4-0.2,0.9-0.1,1.4c0,0.4,0,0.8,0.1,1.2
	c0.1,0.3,0.4,0.5,0.7,0.4v0.6h-0.2c-0.4,0-0.8-0.1-1-0.4c-0.3-0.3-0.4-0.9-0.4-1.7c0-0.6,0.1-1.2,0.2-1.8c0.1-0.4,0.6-0.6,1.2-0.6
	L159.4,96.5z M152.9,101v-0.6l0,0c0.3,0,0.6-0.2,0.6-0.5c0,0,0,0,0,0c0.1-0.4,0.2-0.9,0.1-1.4c0-0.4,0-0.7-0.1-1.1
	c-0.1-0.3-0.4-0.5-0.6-0.4l0,0v-0.6c0.3,0.1,0.6,0.2,0.8,0.5v-2.3h0.7v6.3h-0.7v-0.5c-0.1,0.2-0.3,0.3-0.4,0.4
	C153.1,100.9,152.9,101,152.9,101L152.9,101z M152.9,96.5V97c-0.3,0-0.6,0.2-0.7,0.4c-0.1,0.4-0.2,0.9-0.1,1.4c0,0.4,0,0.8,0.1,1.2
	c0.1,0.3,0.3,0.4,0.7,0.4v0.6h-0.2c-0.4,0-0.8-0.1-1-0.4c-0.4-0.5-0.5-1.1-0.4-1.7c0-0.6,0.1-1.2,0.3-1.8c0.1-0.4,0.6-0.6,1.2-0.6
	L152.9,96.5z M148.3,101v-0.6c0.2,0,0.4-0.2,0.5-0.4c0.3-0.4,0.4-0.8,0.3-1.3h-0.8v-0.5c0.3-0.1,0.5-0.1,0.8-0.1
	c0-0.3,0-0.6-0.1-0.9c-0.1-0.3-0.4-0.4-0.6-0.4l0,0v-0.5h0.1c0.4,0,0.8,0.1,1.1,0.4c0.2,0.2,0.4,0.6,0.4,0.9v2.1
	c0,0.4,0,0.7,0.1,1.1H149v-0.7c-0.1,0.2-0.3,0.4-0.4,0.6C148.4,100.9,148.3,100.9,148.3,101L148.3,101z M148.3,96.5V97
	c-0.2,0.1-0.4,0.1-0.5,0.2c-0.1,0.1-0.1,0.3-0.1,0.5v0.1h-0.8c0-0.4,0.1-0.7,0.4-1C147.5,96.5,147.9,96.4,148.3,96.5L148.3,96.5z
	 M148.3,98.3v0.5c-0.1,0.1-0.3,0.1-0.4,0.2s-0.4,0.3-0.4,0.7c0,0.2,0,0.4,0.1,0.6c0.1,0.1,0.3,0.2,0.5,0.2h0.1v0.6h-0.4
	c-0.3,0-0.7-0.1-0.9-0.4c-0.2-0.3-0.3-0.7-0.3-1.1c-0.1-0.4,0.2-0.9,0.6-1.1C147.6,98.3,147.9,98.2,148.3,98.3z M129.8,101v-0.6
	c0.2,0,0.4-0.2,0.5-0.4c0.2-0.4,0.3-0.8,0.3-1.3h-0.8v-0.5c0.3-0.1,0.5-0.1,0.8-0.1c0-0.3,0-0.6-0.1-0.9c-0.1-0.3-0.4-0.4-0.6-0.4
	l0,0v-0.5h0.1c0.4,0,0.8,0.1,1.1,0.4c0.2,0.2,0.4,0.6,0.4,0.9v2.1c0,0.4,0,0.7,0.1,1.1h-0.8v-0.7c-0.1,0.2-0.2,0.4-0.4,0.6
	C130,100.9,129.9,100.9,129.8,101L129.8,101z M135.2,98c0-0.3,0-0.5-0.2-0.7c-0.1-0.2-0.3-0.2-0.4-0.2c-0.2,0-0.5,0.1-0.6,0.3
	c-0.2,0.4-0.3,0.8-0.2,1.2c0,0.5,0,1,0.1,1.5c0.1,0.3,0.4,0.4,0.7,0.4c0.2,0,0.4-0.1,0.5-0.3c0.1-0.2,0.1-0.4,0.1-0.7h0.8
	c0.1,0.4-0.1,0.9-0.5,1.2c-0.3,0.2-0.6,0.4-0.9,0.4c-0.4,0-0.9-0.1-1.2-0.4c-0.4-0.5-0.5-1.2-0.4-1.8c0-0.6,0.1-1.2,0.4-1.7
	c0.3-0.4,0.8-0.6,1.3-0.6c0.9,0,1.4,0.5,1.4,1.5L135.2,98z M139.8,96.5h0.7v3.5c0,0.3,0,0.6,0.1,0.9h-0.8v-0.5
	c-0.3,0.4-0.7,0.6-1.1,0.6c-0.5,0.1-1.1-0.3-1.1-0.8c0-0.1,0-0.2,0-0.3v-3.4h0.7v3c0,0.2,0,0.4,0.1,0.7c0.2,0.3,0.7,0.4,1,0.1
	c0.1,0,0.1-0.1,0.1-0.1c0.2-0.2,0.3-0.5,0.3-0.8L139.8,96.5L139.8,96.5z M142.7,100.9H142v-6.3h0.7V100.9L142.7,100.9z M144.2,96.5
	v-0.9l0.7-0.3v1.2h0.9v0.6H145v2.7c0,0.2,0,0.4,0.1,0.4s0.3,0.2,0.6,0.2l0.3-0.1v0.6h-0.3c-0.1,0-0.2,0.1-0.4,0.1
	c-0.6,0-1-0.3-1-0.8v-3.2h-0.7v-0.6L144.2,96.5z M124.2,100.9v-6.3h3.1v0.7H125v2h2.2V98H125v2.9L124.2,100.9z M129.8,96.5V97
	c-0.2,0.1-0.4,0.1-0.5,0.2c-0.1,0.1-0.2,0.3-0.1,0.5v0.1h-0.8c0-0.4,0.1-0.7,0.4-1C129,96.5,129.4,96.4,129.8,96.5L129.8,96.5z
	 M129.8,98.3v0.5c-0.1,0.1-0.3,0.1-0.4,0.2s-0.4,0.3-0.4,0.7c0,0.2,0,0.4,0.1,0.6c0.1,0.1,0.3,0.2,0.5,0.2h0.1v0.6h-0.4
	c-0.3,0-0.7-0.1-0.9-0.4c-0.2-0.3-0.3-0.7-0.3-1.1c-0.1-0.4,0.2-0.9,0.6-1.1c0.3-0.2,0.5-0.2,0.8-0.3L129.8,98.3z"/>
<rect x="124.1" y="86.4" class="st2" width="174.2" height="1.7"/>
<path class="st2" d="M265.7,80.4v-1.7l0,0c1.2,0.1,2.3-0.7,2.7-1.8c0.6-1.8,0.8-3.6,0.7-5.5c0.1-1.9-0.1-3.7-0.7-5.5
	c-0.4-1.1-1.5-1.9-2.7-1.8l0,0v-1.6l0,0c1.7-0.1,3.4,0.8,4.2,2.4c1,2,1.5,4.3,1.4,6.6c0.1,2.3-0.3,4.5-1.4,6.6
	C269.1,79.5,267.4,80.5,265.7,80.4L265.7,80.4z M284,79.7c0,0.2-0.1,0.3-0.3,0.4c0,0,0,0,0,0h-1.4c-0.2,0-0.3-0.1-0.4-0.3l-5.8-12.4
	c-0.3-0.7-0.5-1.5-0.6-2.2h-0.1c0.1,0.5,0.1,0.9,0.2,1.2v13.3c0,0.2-0.1,0.4-0.3,0.4H274c-0.2,0-0.3-0.1-0.3-0.4V63.1
	c0-0.2,0.1-0.3,0.3-0.3h1.7c0.1,0,0.3,0.1,0.4,0.2l5.5,11.7c0.1,0.3,0.2,0.6,0.3,0.9c0.1,0.3,0.2,0.7,0.3,1h0.1
	c0-0.2-0.1-0.5-0.1-0.7c-0.1-0.3-0.1-0.6-0.1-0.9v-12c0-0.2,0.1-0.3,0.3-0.3h1.3c0.2,0,0.4,0.1,0.4,0.3L284,79.7z M265.7,62.5v1.7
	c-1.2,0-2.3,0.7-2.7,1.8c-0.6,1.7-0.8,3.6-0.7,5.4c-0.1,1.9,0.1,3.7,0.7,5.5c0.4,1.2,1.5,1.9,2.7,1.8v1.7c-1.8,0.1-3.4-0.8-4.3-2.4
	c-1-2-1.5-4.3-1.4-6.6c-0.1-2.3,0.3-4.5,1.4-6.6C262.2,63.3,263.9,62.4,265.7,62.5L265.7,62.5z M233.7,74.9v-1.7h2.1l-1.5-5.5
	c-0.1-0.6-0.2-1-0.4-1.4c-0.1-0.3-0.1-0.6-0.2-0.9l0,0v-2.4h0.8c0.2,0,0.3,0.1,0.4,0.2l5,16.4l0.1,0.4c0,0.1-0.1,0.1-0.4,0.1h-1.5
	c-0.3,0-0.4-0.1-0.4-0.3l-1.4-4.9H233.7z M250.7,78.1c0.1,0.1,0.2,0.2,0.2,0.4s-0.4,0.7-1.3,1.2c-0.8,0.5-1.8,0.8-2.7,0.8
	c-1.9,0.1-3.6-0.9-4.5-2.5c-1-2.1-1.5-4.3-1.4-6.6c-0.1-2.2,0.4-4.4,1.3-6.4c0.8-1.6,2.5-2.5,4.3-2.4c1,0,1.9,0.2,2.7,0.7
	c0.9,0.5,1.3,0.9,1.3,1.2c0,0.1-0.1,0.2-0.1,0.3l-0.5,0.7c-0.1,0.1-0.2,0.2-0.3,0.2c-0.5-0.4-1-0.8-1.5-1.1c-0.5-0.3-1-0.4-1.5-0.4
	c-1.2-0.1-2.2,0.6-2.7,1.7c-0.6,1.7-0.8,3.4-0.7,5.2c-0.1,1.9,0.2,3.9,0.9,5.7c0.3,1.2,1.4,2,2.7,2c0.7,0,1.4-0.3,2-0.7
	c0.4-0.2,0.7-0.5,1.1-0.7c0.1,0,0.1,0,0.1,0.1l0.1,0.1L250.7,78.1L250.7,78.1z M259.2,79.7c0,0.2-0.1,0.4-0.3,0.4h-6.6
	c-0.2,0-0.3-0.1-0.4-0.3c0,0,0,0,0,0v-1c0-0.2,0.1-0.3,0.4-0.3h2.2v-14h-2.2c-0.2,0-0.4-0.1-0.4-0.3v-1c0-0.2,0.1-0.3,0.4-0.3h6.6
	c0.2,0,0.3,0.1,0.3,0.3v1c0,0.2-0.1,0.3-0.3,0.3h-2.3v14h2.3c0.2,0,0.3,0.1,0.3,0.3V79.7z M233.6,62.9v2.4c0,0.2-0.1,0.5-0.1,0.7
	c0,0.1-0.1,0.7-0.4,1.7l-1.5,5.5h2.1v1.7h-2.6l-1.2,4.9c-0.1,0.2-0.3,0.3-0.5,0.3h-1.5c-0.1,0-0.2-0.1-0.3-0.1v-0.5l5-16.4
	c0.1-0.1,0.3-0.2,0.4-0.2L233.6,62.9z M227.5,63.4L227.5,63.4l0.1-0.4c0-0.1-0.1-0.1-0.1-0.1V63.4z M227.5,62.9v0.5l-0.4,0.9
	c-0.1,0.2-0.1,0.3-0.4,0.3h-3.5v15.1c0,0.2-0.1,0.3-0.3,0.4c0,0,0,0,0,0h-1.4c-0.2,0-0.3-0.1-0.3-0.4V64.6h-3.7
	c-0.2,0-0.3-0.1-0.3-0.3v-1.2c0-0.2,0.1-0.3,0.4-0.3H227.5L227.5,62.9z M227.5,79.6l-0.1,0.4c0,0,0,0.1,0.1,0.1l0,0V79.6z
	 M198.1,72.7v-1.8c0.6,0,1.2-0.3,1.7-0.7c0.7-0.7,1.1-1.8,0.9-2.8c0-1.2-0.3-2-0.9-2.4c-0.5-0.3-1.1-0.5-1.7-0.5v-1.7
	c1.1,0,2.2,0.2,3.2,0.8c1,0.5,1.4,1.8,1.4,3.7c0.1,1.5-0.4,3.1-1.5,4.2C200.3,72.3,199.3,72.7,198.1,72.7L198.1,72.7z M215.5,75.4
	c0.1,1.4-0.4,2.7-1.4,3.7c-1.2,1-2.6,1.4-4.1,1.4c-1.9,0-3.2-0.4-4-1.3c-0.9-1-1.4-2.4-1.3-3.8V63.1c0-0.2,0.1-0.3,0.4-0.3h1.4
	c0.2,0,0.3,0.1,0.3,0.3v12.2c-0.1,0.9,0.2,1.8,0.7,2.4c0.6,0.6,1.5,1,2.4,0.9c2.3,0,3.5-1.1,3.5-3.3V63.1c0-0.2,0.1-0.3,0.3-0.3h1.4
	c0.2,0,0.4,0.1,0.4,0.3L215.5,75.4z M198.1,62.9v1.7h-2.6V71h1.7c0.3,0,0.6,0,0.9-0.1v1.8c-0.3,0.1-0.5,0.1-0.8,0.1h-1.8v6.9
	c0,0.2-0.1,0.3-0.3,0.4c0,0,0,0,0,0h-1.5c-0.2,0-0.3-0.2-0.3-0.4V63.1c0-0.1,0.1-0.3,0.2-0.3c0,0,0,0,0.1,0H198.1L198.1,62.9z
	 M169.3,80.4v-1.7l0,0c1.2,0.1,2.3-0.7,2.7-1.8c0.6-1.8,0.8-3.6,0.7-5.5c0.1-1.8-0.2-3.7-0.7-5.4c-0.4-1.2-1.5-1.9-2.7-1.8l0,0v-1.7
	l0,0c1.8-0.1,3.4,0.8,4.3,2.4c1,2,1.5,4.3,1.4,6.5c0.1,2.3-0.4,4.6-1.4,6.6C172.7,79.6,171.1,80.5,169.3,80.4L169.3,80.4z
	 M190.2,79.7c0,0.2-0.1,0.4-0.3,0.4h-1.4c-0.2,0-0.3-0.1-0.3-0.4l-0.4-12.9v-1.6l0,0c0,0.6-0.1,1.2-0.3,1.7l-3.1,8.8
	c0,0.1-0.2,0.2-0.3,0.3h-0.7c-0.2,0-0.4-0.1-0.4-0.3l-2.9-8.7c-0.2-0.6-0.3-1.1-0.3-1.7h-0.1v1.5l-0.4,13c0,0.2-0.1,0.4-0.3,0.4
	h-1.4c-0.2,0-0.3-0.1-0.3-0.4l0.9-16.6c0-0.2,0.1-0.3,0.3-0.3h1.6c0.1,0,0.2,0.1,0.2,0.3c0,0,0,0,0,0l3,8.6c0,0.1,0.1,0.3,0.1,0.4
	c0.1,0.4,0.2,0.8,0.2,1.2c0.1-0.3,0.2-0.6,0.3-0.9c0.1-0.4,0.1-0.7,0.1-0.7l3-8.7c0.1-0.2,0.1-0.3,0.3-0.3h1.7
	c0.1,0,0.3,0.1,0.3,0.2c0,0,0,0,0,0.1L190.2,79.7z M128.9,78.1c0.9-0.2,1.7-0.8,2.1-1.6c0.7-1.7,1-3.6,0.9-5.4
	c0-2.6-0.4-4.3-1.1-5.2c-0.5-0.6-1.1-1-1.9-1.2v-1.8c1.3,0.1,2.5,0.7,3.5,1.5c1.2,1.1,1.8,3.4,1.8,6.8c0,3-0.6,5.3-1.7,6.7
	c-0.9,1.1-2.2,1.8-3.6,1.9L128.9,78.1L128.9,78.1z M169.3,62.5v1.7c-1.2,0-2.3,0.7-2.7,1.8c-0.6,1.7-0.8,3.6-0.7,5.4
	c-0.1,1.9,0.1,3.7,0.7,5.5c0.4,1.1,1.5,1.9,2.7,1.8v1.7c-1.8,0.1-3.4-0.8-4.3-2.4c-1-2.1-1.5-4.3-1.4-6.6c-0.1-2.3,0.3-4.5,1.4-6.6
	C165.8,63.3,167.5,62.4,169.3,62.5L169.3,62.5z M145.2,79.7c0,0.2-0.1,0.3-0.3,0.4c0,0,0,0,0,0h-7.8c-0.2,0-0.3-0.2-0.3-0.3
	c0,0,0,0,0,0V63.1c0-0.1,0.1-0.3,0.2-0.3c0,0,0,0,0.1,0h8.1l0.1,0.1l-0.1,0.3l-0.3,1.1c-0.1,0.2-0.3,0.2-0.4,0.2h-5.5v5.6h4.9
	c0.2,0,0.3,0.1,0.4,0.3c0,0,0,0,0,0v1.1c0,0.2-0.1,0.3-0.3,0.4c0,0,0,0,0,0h-4.9v6.3h6.1c0.1,0,0.3,0.1,0.3,0.2c0,0,0,0,0,0.1
	L145.2,79.7L145.2,79.7z M162.6,78.1c0.1,0.1,0.1,0.2,0.1,0.4c0,0.2-0.4,0.7-1.3,1.2c-0.8,0.5-1.7,0.8-2.7,0.8
	c-1.8,0.1-3.6-0.9-4.4-2.5c-1-2-1.5-4.3-1.4-6.6c-0.1-2.2,0.3-4.4,1.2-6.4c0.9-1.6,2.6-2.5,4.4-2.4c0.9,0,1.9,0.2,2.7,0.7
	c0.8,0.5,1.2,0.9,1.2,1.2c0,0.1,0,0.2-0.1,0.3l-0.5,0.7c-0.1,0.1-0.2,0.2-0.3,0.2c-0.4-0.4-0.9-0.7-1.4-1.1c-0.5-0.3-1-0.4-1.6-0.4
	c-1.2-0.1-2.2,0.6-2.7,1.7c-0.6,1.7-0.8,3.4-0.7,5.2c-0.1,1.9,0.2,3.9,0.9,5.7c0.4,1.2,1.5,2,2.7,2c0.7,0,1.4-0.3,1.9-0.7
	c0.3-0.3,0.7-0.5,1-0.7c0.1,0,0.1,0,0.1,0.1l0.1,0.1L162.6,78.1z M127.5,78.3c0.5,0,0.9-0.1,1.4-0.1v1.8c-0.6,0.1-1.2,0.1-1.8,0.1
	h-2.9c-0.2,0-0.3-0.1-0.3-0.4V63.1c0-0.2,0.1-0.3,0.3-0.3h3.2c0.5,0,1,0,1.5,0.1v1.8c-0.5-0.1-1.1-0.1-1.6-0.2h-1.4v13.7L127.5,78.3
	z"/>
</svg>
